<svg width="136" height="30" viewBox="0 0 136 30" fill="none" xmlns="http://www.w3.org/2000/svg">
<rect width="136" height="30" rx="4" fill="#ECECEC"/>
<path d="M20.7728 9.37086C19.0907 7.68872 16.3514 7.68872 14.671 9.37086L10.0103 14.028C9.97996 14.0584 9.96388 14.0994 9.96388 14.1423C9.96388 14.1851 9.97996 14.2262 10.0103 14.2566L10.6692 14.9155C10.6994 14.9455 10.7401 14.9623 10.7826 14.9623C10.8251 14.9623 10.8659 14.9455 10.896 14.9155L15.5567 10.2584C16.1353 9.67979 16.905 9.36193 17.7228 9.36193C18.5407 9.36193 19.3103 9.67979 19.8871 10.2584C20.4657 10.8369 20.7835 11.6066 20.7835 12.4226C20.7835 13.2405 20.4657 14.0084 19.8871 14.5869L15.1371 19.3351L14.3675 20.1048C13.6478 20.8244 12.4782 20.8244 11.7585 20.1048C11.4103 19.7566 11.2192 19.2941 11.2192 18.8012C11.2192 18.3084 11.4103 17.8459 11.7585 17.4976L16.471 12.7869C16.5907 12.6691 16.7478 12.603 16.9157 12.603H16.9175C17.0853 12.603 17.2407 12.6691 17.3585 12.7869C17.4782 12.9066 17.5425 13.0637 17.5425 13.2316C17.5425 13.3976 17.4764 13.5548 17.3585 13.6726L13.5067 17.5209C13.4764 17.5512 13.4603 17.5923 13.4603 17.6351C13.4603 17.678 13.4764 17.7191 13.5067 17.7494L14.1657 18.4084C14.1958 18.4383 14.2366 18.4552 14.2791 18.4552C14.3216 18.4552 14.3623 18.4383 14.3925 18.4084L18.2425 14.5584C18.5978 14.203 18.7925 13.7316 18.7925 13.2298C18.7925 12.728 18.596 12.2548 18.2425 11.9012C17.5085 11.1673 16.3157 11.1691 15.5817 11.9012L15.1246 12.3601L10.871 16.6119C10.5823 16.8989 10.3535 17.2404 10.1978 17.6165C10.042 17.9926 9.96255 18.3959 9.96388 18.803C9.96388 19.6298 10.2871 20.4066 10.871 20.9905C11.4764 21.5941 12.2692 21.8959 13.0621 21.8959C13.855 21.8959 14.6478 21.5941 15.2514 20.9905L20.7728 15.4726C21.5853 14.6584 22.0353 13.5744 22.0353 12.4226C22.0371 11.2691 21.5871 10.1851 20.7728 9.37086Z" fill="black" fill-opacity="0.45"/>
<path d="M34.6523 20H33.3877V11.9609C33.3877 11.4004 33.4971 10.9264 33.7158 10.5391C33.9346 10.1517 34.2467 9.85775 34.6523 9.65723C35.0579 9.45671 35.5387 9.35645 36.0947 9.35645C36.4229 9.35645 36.7441 9.39746 37.0586 9.47949C37.373 9.55697 37.6966 9.65495 38.0293 9.77344L37.8174 10.8398C37.6077 10.7578 37.3639 10.6803 37.0859 10.6074C36.8125 10.5299 36.5117 10.4912 36.1836 10.4912C35.6413 10.4912 35.2493 10.6143 35.0078 10.8604C34.7708 11.1019 34.6523 11.4688 34.6523 11.9609V20ZM36.1631 12.6035V13.5742H32.2188V12.6035H36.1631ZM38.6514 12.6035V20H37.3867V12.6035H38.6514ZM42.1035 9.5V20H40.832V9.5H42.1035ZM47.2031 20.1367C46.6882 20.1367 46.221 20.0501 45.8018 19.877C45.387 19.6992 45.0293 19.4508 44.7285 19.1318C44.4323 18.8128 44.2044 18.4346 44.0449 17.9971C43.8854 17.5596 43.8057 17.0811 43.8057 16.5615V16.2744C43.8057 15.6729 43.8945 15.1374 44.0723 14.668C44.25 14.194 44.4915 13.793 44.7969 13.4648C45.1022 13.1367 45.4486 12.8883 45.8359 12.7197C46.2233 12.5511 46.6243 12.4668 47.0391 12.4668C47.5677 12.4668 48.0234 12.5579 48.4062 12.7402C48.7936 12.9225 49.1104 13.1777 49.3564 13.5059C49.6025 13.8294 49.7848 14.2122 49.9033 14.6543C50.0218 15.0918 50.0811 15.5703 50.0811 16.0898V16.6572H44.5576V15.625H48.8164V15.5293C48.7982 15.2012 48.7298 14.8822 48.6113 14.5723C48.4974 14.2624 48.3151 14.0072 48.0645 13.8066C47.8138 13.6061 47.472 13.5059 47.0391 13.5059C46.752 13.5059 46.4876 13.5674 46.2461 13.6904C46.0046 13.8089 45.7972 13.9867 45.624 14.2236C45.4508 14.4606 45.3164 14.75 45.2207 15.0918C45.125 15.4336 45.0771 15.8278 45.0771 16.2744V16.5615C45.0771 16.9124 45.125 17.2428 45.2207 17.5527C45.321 17.8581 45.4645 18.127 45.6514 18.3594C45.8428 18.5918 46.0729 18.7741 46.3418 18.9062C46.6152 19.0384 46.9251 19.1045 47.2715 19.1045C47.7181 19.1045 48.0964 19.0133 48.4062 18.8311C48.7161 18.6488 48.9873 18.4049 49.2197 18.0996L49.9854 18.708C49.8258 18.9495 49.623 19.1797 49.377 19.3984C49.1309 19.6172 48.8278 19.7949 48.4678 19.9316C48.1123 20.0684 47.6908 20.1367 47.2031 20.1367ZM52.8223 14.1826V20H51.5576V12.6035H52.7539L52.8223 14.1826ZM52.5215 16.0215L51.9951 16.001C51.9997 15.4951 52.0749 15.028 52.2207 14.5996C52.3665 14.1667 52.5716 13.7907 52.8359 13.4717C53.1003 13.1527 53.4147 12.9066 53.7793 12.7334C54.1484 12.5557 54.5563 12.4668 55.0029 12.4668C55.3675 12.4668 55.6956 12.5169 55.9873 12.6172C56.279 12.7129 56.5273 12.8678 56.7324 13.082C56.9421 13.2962 57.1016 13.5742 57.2109 13.916C57.3203 14.2533 57.375 14.6657 57.375 15.1533V20H56.1035V15.1396C56.1035 14.7523 56.0465 14.4424 55.9326 14.21C55.8187 13.973 55.6523 13.8021 55.4336 13.6973C55.2148 13.5879 54.946 13.5332 54.627 13.5332C54.3125 13.5332 54.0254 13.5993 53.7656 13.7314C53.5104 13.8636 53.2894 14.0459 53.1025 14.2783C52.9202 14.5107 52.7767 14.7773 52.6719 15.0781C52.5716 15.3743 52.5215 15.6888 52.5215 16.0215ZM63.6572 18.7354V14.9277C63.6572 14.6361 63.598 14.3831 63.4795 14.1689C63.3656 13.9502 63.1924 13.7816 62.96 13.6631C62.7275 13.5446 62.4404 13.4854 62.0986 13.4854C61.7796 13.4854 61.4993 13.54 61.2578 13.6494C61.0208 13.7588 60.834 13.9023 60.6973 14.0801C60.5651 14.2578 60.499 14.4492 60.499 14.6543H59.2344C59.2344 14.39 59.3027 14.1279 59.4395 13.8682C59.5762 13.6084 59.7721 13.3737 60.0273 13.1641C60.2871 12.9499 60.597 12.7812 60.957 12.6582C61.3216 12.5306 61.7272 12.4668 62.1738 12.4668C62.7116 12.4668 63.1855 12.5579 63.5957 12.7402C64.0104 12.9225 64.334 13.1982 64.5664 13.5674C64.8034 13.932 64.9219 14.39 64.9219 14.9414V18.3867C64.9219 18.6328 64.9424 18.8949 64.9834 19.1729C65.029 19.4508 65.0951 19.6901 65.1816 19.8906V20H63.8623C63.7985 19.8542 63.7484 19.6605 63.7119 19.4189C63.6755 19.1729 63.6572 18.945 63.6572 18.7354ZM63.876 15.5156L63.8896 16.4043H62.6113C62.2513 16.4043 61.93 16.4339 61.6475 16.4932C61.3649 16.5479 61.1279 16.6322 60.9365 16.7461C60.7451 16.86 60.5993 17.0036 60.499 17.1768C60.3988 17.3454 60.3486 17.5436 60.3486 17.7715C60.3486 18.0039 60.401 18.2158 60.5059 18.4072C60.6107 18.5986 60.7679 18.7513 60.9775 18.8652C61.1917 18.9746 61.4538 19.0293 61.7637 19.0293C62.151 19.0293 62.4928 18.9473 62.7891 18.7832C63.0853 18.6191 63.32 18.4186 63.4932 18.1816C63.6709 17.9447 63.7666 17.7145 63.7803 17.4912L64.3203 18.0996C64.2884 18.291 64.2018 18.5029 64.0605 18.7354C63.9193 18.9678 63.7301 19.1911 63.4932 19.4053C63.2607 19.6149 62.9827 19.7904 62.6592 19.9316C62.3402 20.0684 61.9801 20.1367 61.5791 20.1367C61.0778 20.1367 60.638 20.0387 60.2598 19.8428C59.8861 19.6468 59.5944 19.3848 59.3848 19.0566C59.1797 18.724 59.0771 18.3525 59.0771 17.9424C59.0771 17.5459 59.1546 17.1973 59.3096 16.8965C59.4645 16.5911 59.6878 16.3382 59.9795 16.1377C60.2712 15.9326 60.6221 15.7777 61.0322 15.6729C61.4424 15.568 61.9004 15.5156 62.4062 15.5156H63.876ZM68.1689 14.0732V20H66.8975V12.6035H68.1006L68.1689 14.0732ZM67.9092 16.0215L67.3213 16.001C67.3258 15.4951 67.3919 15.028 67.5195 14.5996C67.6471 14.1667 67.8363 13.7907 68.0869 13.4717C68.3376 13.1527 68.6497 12.9066 69.0234 12.7334C69.3971 12.5557 69.8301 12.4668 70.3223 12.4668C70.6686 12.4668 70.9876 12.5169 71.2793 12.6172C71.571 12.7129 71.8239 12.8656 72.0381 13.0752C72.2523 13.2848 72.4186 13.5537 72.5371 13.8818C72.6556 14.21 72.7148 14.6064 72.7148 15.0713V20H71.4502V15.1328C71.4502 14.7454 71.3841 14.4355 71.252 14.2031C71.1243 13.9707 70.9421 13.8021 70.7051 13.6973C70.4681 13.5879 70.1901 13.5332 69.8711 13.5332C69.4974 13.5332 69.1852 13.5993 68.9346 13.7314C68.6839 13.8636 68.4834 14.0459 68.333 14.2783C68.1826 14.5107 68.0732 14.7773 68.0049 15.0781C67.9411 15.3743 67.9092 15.6888 67.9092 16.0215ZM72.7012 15.3242L71.8535 15.584C71.8581 15.1784 71.9242 14.7887 72.0518 14.415C72.1839 14.0413 72.373 13.7087 72.6191 13.417C72.8698 13.1253 73.1774 12.8952 73.542 12.7266C73.9066 12.5534 74.3236 12.4668 74.793 12.4668C75.1895 12.4668 75.5404 12.5192 75.8457 12.624C76.1556 12.7288 76.4154 12.8906 76.625 13.1094C76.8392 13.3236 77.001 13.5993 77.1104 13.9365C77.2197 14.2738 77.2744 14.6748 77.2744 15.1396V20H76.0029V15.126C76.0029 14.7113 75.9368 14.39 75.8047 14.1621C75.6771 13.9297 75.4948 13.7679 75.2578 13.6768C75.0254 13.5811 74.7474 13.5332 74.4238 13.5332C74.1458 13.5332 73.8997 13.5811 73.6855 13.6768C73.4714 13.7725 73.2913 13.9046 73.1455 14.0732C72.9997 14.2373 72.888 14.4264 72.8105 14.6406C72.7376 14.8548 72.7012 15.0827 72.7012 15.3242ZM82.2578 20.1367C81.7428 20.1367 81.2757 20.0501 80.8564 19.877C80.4417 19.6992 80.084 19.4508 79.7832 19.1318C79.487 18.8128 79.2591 18.4346 79.0996 17.9971C78.9401 17.5596 78.8604 17.0811 78.8604 16.5615V16.2744C78.8604 15.6729 78.9492 15.1374 79.127 14.668C79.3047 14.194 79.5462 13.793 79.8516 13.4648C80.1569 13.1367 80.5033 12.8883 80.8906 12.7197C81.278 12.5511 81.679 12.4668 82.0938 12.4668C82.6224 12.4668 83.0781 12.5579 83.4609 12.7402C83.8483 12.9225 84.165 13.1777 84.4111 13.5059C84.6572 13.8294 84.8395 14.2122 84.958 14.6543C85.0765 15.0918 85.1357 15.5703 85.1357 16.0898V16.6572H79.6123V15.625H83.8711V15.5293C83.8529 15.2012 83.7845 14.8822 83.666 14.5723C83.5521 14.2624 83.3698 14.0072 83.1191 13.8066C82.8685 13.6061 82.5267 13.5059 82.0938 13.5059C81.8066 13.5059 81.5423 13.5674 81.3008 13.6904C81.0592 13.8089 80.8519 13.9867 80.6787 14.2236C80.5055 14.4606 80.3711 14.75 80.2754 15.0918C80.1797 15.4336 80.1318 15.8278 80.1318 16.2744V16.5615C80.1318 16.9124 80.1797 17.2428 80.2754 17.5527C80.3757 17.8581 80.5192 18.127 80.7061 18.3594C80.8975 18.5918 81.1276 18.7741 81.3965 18.9062C81.6699 19.0384 81.9798 19.1045 82.3262 19.1045C82.7728 19.1045 83.151 19.0133 83.4609 18.8311C83.7708 18.6488 84.042 18.4049 84.2744 18.0996L85.04 18.708C84.8805 18.9495 84.6777 19.1797 84.4316 19.3984C84.1855 19.6172 83.8825 19.7949 83.5225 19.9316C83.167 20.0684 82.7454 20.1367 82.2578 20.1367ZM90.6318 9.99219V20H89.3672V11.5713L86.8174 12.501V11.3594L90.4336 9.99219H90.6318ZM94.5078 19.3301C94.5078 19.1159 94.5739 18.9359 94.7061 18.79C94.8428 18.6396 95.0387 18.5645 95.2939 18.5645C95.5492 18.5645 95.7428 18.6396 95.875 18.79C96.0117 18.9359 96.0801 19.1159 96.0801 19.3301C96.0801 19.5397 96.0117 19.7174 95.875 19.8633C95.7428 20.0091 95.5492 20.082 95.2939 20.082C95.0387 20.082 94.8428 20.0091 94.7061 19.8633C94.5739 19.7174 94.5078 19.5397 94.5078 19.3301ZM102.841 18.5645V9.5H104.112V20H102.95L102.841 18.5645ZM97.8643 16.3838V16.2402C97.8643 15.6751 97.9326 15.1624 98.0693 14.7021C98.2106 14.2373 98.4089 13.8385 98.6641 13.5059C98.9238 13.1732 99.2314 12.918 99.5869 12.7402C99.9469 12.5579 100.348 12.4668 100.79 12.4668C101.255 12.4668 101.66 12.5488 102.007 12.7129C102.358 12.8724 102.654 13.1071 102.896 13.417C103.142 13.7223 103.335 14.0915 103.477 14.5244C103.618 14.9574 103.716 15.4473 103.771 15.9941V16.623C103.72 17.1654 103.622 17.653 103.477 18.0859C103.335 18.5189 103.142 18.888 102.896 19.1934C102.654 19.4987 102.358 19.7334 102.007 19.8975C101.656 20.057 101.246 20.1367 100.776 20.1367C100.343 20.1367 99.9469 20.0433 99.5869 19.8564C99.2314 19.6696 98.9238 19.4076 98.6641 19.0703C98.4089 18.7331 98.2106 18.3366 98.0693 17.8809C97.9326 17.4206 97.8643 16.9215 97.8643 16.3838ZM99.1357 16.2402V16.3838C99.1357 16.7529 99.1722 17.0993 99.2451 17.4229C99.3226 17.7464 99.4411 18.0312 99.6006 18.2773C99.7601 18.5234 99.9629 18.7171 100.209 18.8584C100.455 18.9951 100.749 19.0635 101.091 19.0635C101.51 19.0635 101.854 18.9746 102.123 18.7969C102.396 18.6191 102.615 18.3844 102.779 18.0928C102.943 17.8011 103.071 17.4844 103.162 17.1426V15.4951C103.107 15.2445 103.028 15.0029 102.923 14.7705C102.823 14.5335 102.69 14.3239 102.526 14.1416C102.367 13.9548 102.169 13.8066 101.932 13.6973C101.699 13.5879 101.424 13.5332 101.104 13.5332C100.758 13.5332 100.46 13.6061 100.209 13.752C99.9629 13.8932 99.7601 14.0892 99.6006 14.3398C99.4411 14.5859 99.3226 14.873 99.2451 15.2012C99.1722 15.5247 99.1357 15.8711 99.1357 16.2402ZM105.746 16.3838V16.2266C105.746 15.6934 105.824 15.1989 105.979 14.7432C106.133 14.2829 106.357 13.8841 106.648 13.5469C106.94 13.2051 107.293 12.9408 107.708 12.7539C108.123 12.5625 108.588 12.4668 109.103 12.4668C109.622 12.4668 110.089 12.5625 110.504 12.7539C110.923 12.9408 111.279 13.2051 111.57 13.5469C111.867 13.8841 112.092 14.2829 112.247 14.7432C112.402 15.1989 112.479 15.6934 112.479 16.2266V16.3838C112.479 16.917 112.402 17.4115 112.247 17.8672C112.092 18.3229 111.867 18.7217 111.57 19.0635C111.279 19.4007 110.925 19.665 110.511 19.8564C110.101 20.0433 109.636 20.1367 109.116 20.1367C108.597 20.1367 108.13 20.0433 107.715 19.8564C107.3 19.665 106.945 19.4007 106.648 19.0635C106.357 18.7217 106.133 18.3229 105.979 17.8672C105.824 17.4115 105.746 16.917 105.746 16.3838ZM107.011 16.2266V16.3838C107.011 16.7529 107.054 17.1016 107.141 17.4297C107.227 17.7533 107.357 18.0404 107.53 18.291C107.708 18.5417 107.929 18.7399 108.193 18.8857C108.458 19.027 108.765 19.0977 109.116 19.0977C109.463 19.0977 109.766 19.027 110.025 18.8857C110.29 18.7399 110.508 18.5417 110.682 18.291C110.855 18.0404 110.985 17.7533 111.071 17.4297C111.162 17.1016 111.208 16.7529 111.208 16.3838V16.2266C111.208 15.862 111.162 15.5179 111.071 15.1943C110.985 14.8662 110.853 14.5768 110.675 14.3262C110.502 14.071 110.283 13.8704 110.019 13.7246C109.759 13.5788 109.453 13.5059 109.103 13.5059C108.756 13.5059 108.451 13.5788 108.187 13.7246C107.927 13.8704 107.708 14.071 107.53 14.3262C107.357 14.5768 107.227 14.8662 107.141 15.1943C107.054 15.5179 107.011 15.862 107.011 16.2266ZM117.025 19.0977C117.326 19.0977 117.604 19.0361 117.859 18.9131C118.115 18.79 118.324 18.6214 118.488 18.4072C118.652 18.1885 118.746 17.9401 118.769 17.6621H119.972C119.949 18.0996 119.801 18.5075 119.527 18.8857C119.258 19.2594 118.905 19.5625 118.468 19.7949C118.03 20.0228 117.549 20.1367 117.025 20.1367C116.469 20.1367 115.984 20.0387 115.569 19.8428C115.159 19.6468 114.817 19.3779 114.544 19.0361C114.275 18.6943 114.072 18.3024 113.936 17.8604C113.803 17.4137 113.737 16.9421 113.737 16.4453V16.1582C113.737 15.6615 113.803 15.1921 113.936 14.75C114.072 14.3034 114.275 13.9092 114.544 13.5674C114.817 13.2256 115.159 12.9567 115.569 12.7607C115.984 12.5648 116.469 12.4668 117.025 12.4668C117.604 12.4668 118.11 12.5853 118.543 12.8223C118.976 13.0547 119.315 13.3737 119.562 13.7793C119.812 14.1803 119.949 14.6361 119.972 15.1465H118.769C118.746 14.8411 118.659 14.5654 118.509 14.3193C118.363 14.0732 118.162 13.8773 117.907 13.7314C117.657 13.5811 117.363 13.5059 117.025 13.5059C116.638 13.5059 116.312 13.5833 116.048 13.7383C115.788 13.8887 115.581 14.0938 115.426 14.3535C115.275 14.6087 115.166 14.8936 115.098 15.208C115.034 15.5179 115.002 15.8346 115.002 16.1582V16.4453C115.002 16.7689 115.034 17.0879 115.098 17.4023C115.161 17.7168 115.269 18.0016 115.419 18.2568C115.574 18.512 115.781 18.7171 116.041 18.8721C116.305 19.0225 116.633 19.0977 117.025 19.0977ZM122.248 12.6035L123.868 15.2969L125.509 12.6035H126.992L124.572 16.2539L127.067 20H125.604L123.896 17.2246L122.187 20H120.717L123.205 16.2539L120.792 12.6035H122.248Z" fill="#051D49"/>
</svg>
